<svg width="54" height="16" viewBox="0 0 54 16" fill="none" xmlns="http://www.w3.org/2000/svg">
<g clip-path="url(#clip0_4_3637)">
<path d="M53.2856 0.06709C53.0422 0.033542 52.7989 0 52.5555 0C52.034 0 51.6515 0.10064 51.4081 0.268381C51.1648 0.469669 51.0257 0.771598 51.0257 1.20772V7.91734C51.0257 8.75604 50.7823 9.35991 50.2956 9.76249C49.8088 10.1651 49.1482 10.3664 48.3138 10.3664C47.688 10.3664 47.1317 10.2993 46.6449 10.1315C46.1582 9.96378 45.741 9.79604 45.3933 9.6283V8.31992C45.3933 8.21928 45.3933 8.15219 45.3933 8.05154V0.234831C45.289 0.201282 45.1151 0.134188 44.9065 0.10064H44.8718C44.6632 0.0670921 44.4198 0.0335399 44.1416 0.0335399C43.6201 0.0335399 43.2377 0.13419 42.9943 0.301931C42.7509 0.503219 42.6118 0.805148 42.6118 1.24127V7.95089C42.6118 8.78959 42.3685 9.39346 41.8817 9.79604C41.395 10.1986 40.7344 10.3999 39.8999 10.3999C39.2741 10.3999 38.7178 10.3328 38.2311 10.1651C37.7443 9.99733 37.3271 9.82959 36.9794 9.66185V3.52255C36.9794 3.52255 36.9794 3.52255 36.9447 3.52255V3.489C36.8056 3.4219 36.6317 3.38836 36.4231 3.35481C36.1798 3.32126 35.9364 3.28771 35.693 3.28771C35.1715 3.28771 34.789 3.38835 34.5457 3.55609C34.3023 3.75738 34.1632 4.05932 34.1632 4.49544V7.91734C34.1632 8.75604 33.9198 9.35991 33.4331 9.76249C32.9463 10.1651 31.4513 10.1315 31.4513 10.1315L23.8024 10.098C23.2808 10.098 22.8984 9.99732 22.655 9.76249C22.4116 9.52765 22.203 9.19218 22.0292 8.68895L18.7262 0.06709C18.5872 0.06709 18.4133 0.0670921 18.1699 0.10064C17.9266 0.134188 17.6832 0.201287 17.4398 0.301931C16.9531 0.469671 16.6402 0.704506 16.4663 0.939343C16.2925 1.20773 16.2925 1.54321 16.4663 1.94579L18.7958 7.91734C18.7958 7.91734 18.7958 7.91734 18.7958 7.95089C19.1435 8.85669 18.4133 9.79604 17.4051 9.79604H12.2594C12.1899 9.93023 12.1551 10.098 12.1203 10.2993C12.0856 10.5005 12.0508 10.7354 12.0508 11.0038C12.0508 11.507 12.1551 11.876 12.3289 12.1109C12.5375 12.3457 12.8504 12.4799 13.3024 12.4799H18.4829C19.9779 12.4799 20.8123 11.6076 21.1252 11.1044C21.5077 11.6747 21.8901 12.0438 22.3073 12.2786C22.6898 12.4799 23.2808 12.547 23.7676 12.547C23.7676 12.547 31.799 12.5134 31.9381 12.5134C33.3636 12.4463 34.4761 12.1109 35.3453 11.4734C35.8321 11.7418 36.4231 11.9767 37.1533 12.178C37.9529 12.4128 38.8569 12.547 39.8652 12.547C41.534 12.547 42.8552 12.178 43.8287 11.507C44.2807 11.7418 44.8718 11.9767 45.5671 12.2115C46.3668 12.4463 47.2708 12.5805 48.279 12.5805C49.9827 12.5805 51.3386 12.2115 52.3121 11.4734C53.2856 10.7354 53.7724 9.59475 53.7724 8.08508V0.268381C53.7028 0.167736 53.529 0.100638 53.2856 0.06709Z" fill="#424750"/>
<path d="M12.2243 6.1729C12.2243 5.23355 12.0852 4.39485 11.7723 3.65679C11.4941 2.91873 11.0769 2.28131 10.5554 1.74454C10.0339 1.20777 9.37328 0.805203 8.64316 0.50327C7.87826 0.201337 7.07859 0.0671387 6.17463 0.0671387C5.27066 0.0671387 4.43623 0.201337 3.7061 0.50327C2.9412 0.805203 2.31538 1.20777 1.79386 1.71099C1.27234 2.24776 0.855123 2.88518 0.57698 3.62324C0.298836 4.39484 0.125 5.23355 0.125 6.1729C0.125 7.11224 0.264068 7.95095 0.57698 8.72255C0.855123 9.49416 1.27234 10.1316 1.79386 10.6348C2.31538 11.1716 2.9412 11.5741 3.7061 11.8425C4.43623 12.1109 5.2359 12.2451 6.1051 12.2786L4.88822 13.6541C4.64484 13.9896 4.54053 14.2915 4.61007 14.5599C4.6796 14.8283 4.92298 15.0967 5.27066 15.3986C5.47927 15.5328 5.65311 15.667 5.86172 15.7677C6.07033 15.8683 6.2094 15.9354 6.34847 15.9689L11.1117 10.098C11.3898 9.69544 11.668 9.25931 11.8418 8.75609C12.0852 7.95094 12.2243 7.07869 12.2243 6.1729ZM8.60839 9.12512C8.01733 9.82963 7.21766 10.1651 6.13986 10.1651C5.09682 10.1651 4.26239 9.82963 3.67134 9.12512C3.08028 8.42061 2.80214 7.44772 2.80214 6.13935C2.80214 4.86452 3.11504 3.85808 3.7061 3.15357C4.29715 2.44906 5.09682 2.08002 6.13986 2.08002C7.1829 2.08002 7.98256 2.44906 8.57362 3.15357C9.16467 3.85808 9.44282 4.86452 9.44282 6.13935C9.47758 7.44772 9.19944 8.42061 8.60839 9.12512Z" fill="#424750"/>
<path d="M34.8239 2.11343L35.2411 2.51601C35.3454 2.61666 35.4845 2.6502 35.6235 2.6502C35.7626 2.6502 35.9017 2.61666 36.006 2.51601L36.4232 2.11343L36.8404 1.71085C36.9447 1.61021 36.9795 1.47602 36.9795 1.34183C36.9795 1.20764 36.9447 1.07344 36.8404 0.9728L36.4232 0.570219L36.006 0.167648C35.9017 0.0670035 35.7626 0.0334473 35.6235 0.0334473C35.4845 0.0334473 35.3454 0.0670035 35.2411 0.167648L34.8239 0.570219L34.4066 0.9728C34.3023 1.07344 34.2676 1.20764 34.2676 1.34183C34.2676 1.47602 34.3023 1.61021 34.4066 1.71085L34.8239 2.11343Z" fill="#424750"/>
<path d="M44.3847 13.6877L43.9675 13.2851C43.8632 13.1844 43.7241 13.1509 43.585 13.1509C43.446 13.1509 43.3069 13.1844 43.2026 13.2851L42.7854 13.6877L42.3681 14.0902C42.3334 14.1238 42.3334 14.1573 42.2986 14.1909C42.2638 14.1573 42.2638 14.1238 42.2291 14.0902L41.8119 13.6877L41.3946 13.2851C41.2903 13.1844 41.1513 13.1509 41.0122 13.1509C40.8731 13.1509 40.7341 13.1844 40.6297 13.2851L40.2125 13.6877L39.7953 14.0902C39.691 14.1909 39.6562 14.3251 39.6562 14.4593C39.6562 14.5934 39.691 14.7276 39.7953 14.8283L40.2125 15.2309L40.6297 15.6334C40.7341 15.7341 40.8731 15.7676 41.0122 15.7676C41.1513 15.7676 41.2903 15.7341 41.3946 15.6334L41.8119 15.2309L42.2291 14.8283C42.2638 14.7947 42.2638 14.7612 42.2986 14.7276C42.3334 14.7612 42.3334 14.7947 42.3681 14.8283L42.7854 15.2309L43.2026 15.6334C43.3069 15.7341 43.446 15.7676 43.585 15.7676C43.7241 15.7676 43.8632 15.7341 43.9675 15.6334L44.3847 15.2309L44.8019 14.8283C44.9062 14.7276 44.941 14.5934 44.941 14.4593C44.941 14.3251 44.9062 14.1909 44.8019 14.0902L44.3847 13.6877Z" fill="#424750"/>
<path d="M53.2153 13.6877L52.7981 13.2851C52.6938 13.1844 52.5547 13.1509 52.4157 13.1509C52.2766 13.1509 52.1375 13.1844 52.0332 13.2851L51.616 13.6877L51.1988 14.0902C51.164 14.1238 51.164 14.1573 51.1293 14.1909C51.0945 14.1573 51.0945 14.1238 51.0597 14.0902L50.6425 13.6877L50.2253 13.2851C50.121 13.1844 49.9819 13.1509 49.8428 13.1509C49.7038 13.1509 49.5647 13.1844 49.4604 13.2851L49.0432 13.6877L48.626 14.0902C48.5912 14.1238 48.5912 14.1573 48.5564 14.1909C48.5217 14.1573 48.5217 14.1238 48.4869 14.0902L48.0697 13.6877L47.6525 13.2851C47.5482 13.1844 47.4091 13.1509 47.27 13.1509C47.1309 13.1509 46.9919 13.1844 46.8876 13.2851L46.4703 13.6877L46.0531 14.0902C45.9488 14.1909 45.9141 14.3251 45.9141 14.4593C45.9141 14.5934 45.9488 14.7276 46.0531 14.8283L46.4703 15.2309L46.8876 15.6334C46.9919 15.7341 47.1309 15.7676 47.27 15.7676C47.4091 15.7676 47.5482 15.7341 47.6525 15.6334L48.0697 15.2309L48.4869 14.8283C48.5217 14.7947 48.5217 14.7612 48.5564 14.7276C48.5912 14.7612 48.5912 14.7947 48.626 14.8283L49.0432 15.2309L49.4604 15.6334C49.5647 15.7341 49.7038 15.7676 49.8428 15.7676C49.9819 15.7676 50.121 15.7341 50.2253 15.6334L50.6425 15.2309L51.0597 14.8283C51.0945 14.7947 51.0945 14.7612 51.1293 14.7276C51.164 14.7612 51.164 14.7947 51.1988 14.8283L51.616 15.2309L52.0332 15.6334C52.1375 15.7341 52.2766 15.7676 52.4157 15.7676C52.5547 15.7676 52.6938 15.7341 52.7981 15.6334L53.2153 15.2309L53.6326 14.8283C53.7369 14.7276 53.7716 14.5934 53.7716 14.4593C53.7716 14.3251 53.7369 14.1909 53.6326 14.0902L53.2153 13.6877Z" fill="#424750"/>
</g>
<defs>
<clipPath id="clip0_4_3637">
<rect width="53.6471" height="16" fill="white" transform="translate(0.125)"/>
</clipPath>
</defs>
</svg>
