<svg width="52" height="16" viewBox="0 0 52 16" fill="none" xmlns="http://www.w3.org/2000/svg">
<path fill-rule="evenodd" clip-rule="evenodd" d="M47.5109 1.07911C47.5187 1.6818 47.0179 2.18233 46.4088 2.18061C45.8135 2.17897 45.3229 1.69413 45.3155 1.10018C45.3079 0.495539 45.8066 -0.00225573 46.4176 7.68823e-06C47.0168 0.0022711 47.5033 0.482427 47.5109 1.07911ZM46.5659 10.9615C44.8798 10.9975 43.4798 9.5822 43.456 7.93725C43.4311 6.21565 44.8714 4.84394 46.4702 4.81202C48.1266 4.77893 49.584 6.1536 49.6107 7.84164C49.637 9.51071 48.2508 10.9626 46.5659 10.9615ZM51.122 6.96023C50.6685 4.77916 48.7864 3.16457 46.4065 3.2089C45.3554 3.22849 44.3919 3.57526 43.5692 4.25834C42.3744 5.25058 41.8141 6.54494 41.8554 8.07446C41.8813 9.0361 42.1843 9.93623 42.7901 10.7116C42.8007 10.7251 42.813 10.7381 42.8255 10.7513C42.8733 10.8018 42.9251 10.8564 42.9 10.9601C42.7883 10.9601 42.6763 10.9605 42.5641 10.9608L42.5636 10.9608C42.3096 10.9617 42.0546 10.9625 41.7997 10.9591C41.6856 10.9574 41.5715 10.9592 41.4574 10.961C41.2026 10.9649 40.9478 10.9689 40.6939 10.9352L40.6727 10.9296C40.6465 10.8986 40.619 10.8696 40.5736 10.8708C40.3774 10.6649 40.3785 10.4095 40.3796 10.1558C40.3797 10.1308 40.3798 10.1058 40.3797 10.0809C40.3768 9.16785 40.3744 8.25484 40.372 7.34183V7.34173V7.34163V7.34153V7.34143V7.34133C40.3692 6.27973 40.3664 5.21814 40.3628 4.15657C40.3624 4.02739 40.3594 3.89526 40.3329 3.76976C40.2378 3.32269 39.7576 3.04507 39.3213 3.17612C38.9175 3.29733 38.7157 3.5879 38.7148 4.05986C38.7122 5.34106 38.7104 6.62226 38.7086 7.90344V7.90359V7.90374V7.90389V7.90403V7.90418L38.7054 10.0755C38.7041 10.8279 38.5313 10.9847 37.744 10.9609C37.4651 10.9526 37.3303 10.825 37.2669 10.5545C37.2373 10.4276 37.2256 10.2995 37.2255 10.1689C37.225 9.42072 37.2232 8.67247 37.2194 7.92429C37.2193 7.89472 37.2194 7.86511 37.2196 7.83548C37.2203 7.68602 37.221 7.53626 37.1848 7.38911C37.0079 5.6775 36.1363 4.43223 34.6328 3.62435C33.8885 3.22443 33.0801 3.07746 32.2385 3.07785C29.1783 3.0792 26.1181 3.0788 23.0579 3.07839H23.0567H23.0566H23.0566H23.0566H23.0566H23.0566C21.4964 3.07819 19.9363 3.07798 18.3762 3.07801C18.3569 3.07801 18.3375 3.07731 18.3181 3.07661C18.248 3.07407 18.1776 3.07153 18.1104 3.10197C18.0983 3.10446 18.0861 3.10651 18.0738 3.10855C18.0474 3.11295 18.0209 3.11736 17.9961 3.12632C17.5828 3.27571 17.3695 3.63832 17.4464 4.05807C17.5155 4.43621 17.8391 4.69307 18.2576 4.69705C18.4057 4.69838 29.519 4.70455 32.2336 4.69378C33.0203 4.69065 33.7299 4.88944 34.3604 5.35852C35.7821 6.41608 36.0519 8.40617 34.8424 9.75914C34.1774 10.503 33.3347 10.8684 32.3251 10.867C27.7643 10.8609 18.3065 10.8478 18.2577 10.8473C17.7763 10.8425 17.4072 11.1865 17.3954 11.6484C17.3838 12.1023 17.7501 12.4745 18.225 12.485C18.3245 12.4872 23.2279 12.4856 27.6443 12.4841H27.6468H27.6482H27.6489H27.6493H27.6524C29.3947 12.4835 31.0607 12.4829 32.3253 12.4827C32.4948 12.4827 32.6653 12.4812 32.8338 12.4642C33.8301 12.3639 34.7267 12.0189 35.4932 11.3621L35.4931 11.3622C35.5751 11.4304 35.5638 11.5147 35.5526 11.5979C35.5479 11.6323 35.5433 11.6665 35.5453 11.6992C35.5678 12.0703 35.6819 12.3817 36.0415 12.5547C36.1988 12.6304 36.366 12.6431 36.537 12.6429L36.8717 12.6425C37.7659 12.6414 38.6601 12.6403 39.5543 12.6422C40.7845 12.6449 42.0145 12.635 43.2446 12.6252H43.2446H43.2447H43.2448H43.2448H43.2449C43.639 12.622 44.033 12.6189 44.4271 12.6161C44.7859 12.6137 45.1446 12.6051 45.5033 12.5966C45.8709 12.5878 46.2385 12.579 46.6062 12.5769C46.7047 12.5763 47.3939 12.4789 47.6364 12.4265C50.1271 11.8885 51.6116 9.31504 51.122 6.96023ZM2.14324 7.79506C2.14355 6.20817 3.53274 4.68762 5.21149 4.735C6.90164 4.67763 8.30402 6.20349 8.29926 7.80552C8.29442 9.43291 6.87456 10.8735 5.23093 10.8782C3.5727 10.8831 2.143 9.43401 2.14324 7.79506ZM16.0011 3.82089C15.938 3.24926 15.3332 2.91498 14.8193 3.17043C14.4875 3.33535 14.3596 3.61898 14.3583 3.97886C14.3568 4.37635 14.3534 4.77384 14.3499 5.17133C14.3447 5.76149 14.3396 6.35165 14.3412 6.94175C14.342 7.26578 14.3405 7.58981 14.339 7.91384C14.3356 8.64792 14.3322 9.38202 14.3563 10.1162C14.3758 10.7075 14.116 10.9294 13.5241 10.8621C13.4788 10.8569 13.4342 10.845 13.3896 10.8332L13.3896 10.8332L13.3896 10.8332L13.3893 10.8331C13.3761 10.8296 13.3629 10.8261 13.3497 10.8227C13.1557 10.7736 13.0452 10.6481 13.0032 10.4533C12.9671 10.2861 12.9593 10.1178 12.9592 9.94757C12.9574 7.98164 12.9542 6.0158 12.951 4.04987V4.04935V4.04882V4.04829V4.04776V4.04722V4.04669C12.9509 4.02986 12.9511 4.013 12.9512 3.99611V3.99608V3.99605V3.99604V3.99603V3.99602V3.99602C12.9516 3.9329 12.9521 3.86956 12.9444 3.80739C12.8756 3.25137 12.2833 2.92247 11.778 3.1631C11.4179 3.33465 11.3021 3.64091 11.3018 4.02265C11.3012 4.72429 11.2973 5.42594 11.2934 6.1276V6.12763V6.12766V6.1277V6.12773L11.2934 6.12836C11.2896 6.81355 11.2858 7.49876 11.2851 8.18398L11.2846 8.48712C11.2836 9.02473 11.2826 9.56236 11.2972 10.1003C11.3111 10.6096 11.2567 10.7131 10.8486 10.8646H8.83506C8.8337 10.8472 8.8321 10.8349 8.83095 10.8261V10.8261C8.82928 10.8132 8.82857 10.8077 8.83093 10.8045L8.87007 10.7488L8.87013 10.7487C8.92574 10.6695 8.98138 10.5902 9.03979 10.5132C9.556 9.83229 9.81208 9.04454 9.88248 8.21231C9.99417 6.8925 9.63475 5.68923 8.73454 4.70503C7.46218 3.31412 5.88115 2.83998 4.04115 3.2783C1.68743 3.83892 0.20076 6.21605 0.606302 8.56595C0.794556 9.65684 1.28884 10.5771 2.11584 11.314C2.80486 11.9281 3.6168 12.2802 4.52302 12.4287C4.54616 12.4325 4.57074 12.4336 4.59555 12.4348C4.67719 12.4385 4.76124 12.4422 4.80392 12.5425L4.18498 13.1638L2.9462 14.4074C2.94078 14.4129 2.93601 14.419 2.93125 14.4251L2.93124 14.4251L2.927 14.4305C2.67522 14.7455 2.68818 15.2088 2.95682 15.5027C3.24037 15.8129 3.70023 15.8616 4.04365 15.612C4.12609 15.5521 4.19972 15.479 4.27259 15.4067L4.28763 15.3918L4.80636 14.8782C5.53462 14.1575 6.2629 13.4367 6.98507 12.7098C7.12439 12.5695 7.26417 12.5102 7.45805 12.519C7.85656 12.537 8.25578 12.5461 8.65477 12.5451C10.064 12.5414 11.4732 12.5355 12.8824 12.5296C13.4898 12.527 14.0972 12.5245 14.7046 12.5221C14.7584 12.5219 14.8123 12.5229 14.8662 12.524C14.9521 12.5257 15.038 12.5273 15.1238 12.5239C15.6848 12.5016 16.0022 12.1724 16.0067 11.6084C16.0116 10.9694 16.0163 10.3305 16.0157 9.69141C16.0145 8.24279 16.0118 6.79413 16.0091 5.34545L16.0067 4.0303L16.0067 3.98915C16.007 3.93288 16.0073 3.87648 16.0011 3.82089ZM13.7022 14.5344C14.0419 13.8949 14.4945 13.6426 15.0278 13.7777C15.5291 13.9047 15.8763 14.34 15.8756 14.8407C15.8749 15.3428 15.5132 15.7955 15.0267 15.9028C14.4555 16.0289 14.0292 15.7828 13.6962 15.1234C13.5615 15.4534 13.368 15.7175 13.0323 15.8512C12.801 15.9433 12.5667 15.9559 12.3286 15.894C11.8612 15.7726 11.5156 15.3119 11.5233 14.8266C11.5312 14.3333 11.8668 13.9122 12.3556 13.7822C12.8955 13.6386 13.3299 13.8778 13.7022 14.5344ZM39.3892 13.8055C38.8249 13.681 38.3677 13.9375 38.0651 14.5694C37.6873 13.9102 37.2627 13.6781 36.7086 13.8084C36.2586 13.9144 35.9125 14.3334 35.89 14.7995C35.8652 15.3137 36.1554 15.7455 36.6322 15.9058C36.8679 15.985 37.1026 15.9828 37.3365 15.9011C37.684 15.7795 37.9053 15.5259 38.039 15.1668C38.4415 15.8498 38.8847 16.0806 39.4325 15.9188C39.9332 15.7709 40.2397 15.3425 40.2207 14.8168C40.2034 14.3355 39.8517 13.9076 39.3892 13.8055ZM9.46202 13.7449C8.86471 13.7519 8.38768 14.2369 8.38706 14.8378C8.38635 15.4507 8.88228 15.9451 9.48825 15.9357C10.087 15.9265 10.5626 15.4426 10.5636 14.8415C10.5646 14.2283 10.0717 13.7377 9.46202 13.7449ZM32.4865 8.17794C32.602 8.1809 32.7176 8.18386 32.823 8.10462C33.0137 7.96117 33.0691 7.77315 33.0268 7.54962C32.9907 7.35981 32.8196 7.20183 32.6092 7.17171C32.5265 7.15984 32.4416 7.16104 32.357 7.16224C32.3315 7.1626 32.3059 7.16297 32.2804 7.16297C28.147 7.16265 24.0136 7.16265 19.8801 7.16265C19.8582 7.16265 19.8363 7.16187 19.8143 7.1611C19.766 7.15938 19.7178 7.15767 19.6707 7.16421C19.4945 7.18888 19.4291 7.11021 19.3963 6.94061C19.3277 6.58642 19.1894 6.25424 19.0202 5.93518C19.0139 5.92327 19.0066 5.9115 18.9992 5.89959C18.9702 5.85287 18.9398 5.80386 18.9611 5.73483C19.0264 5.68873 19.1017 5.69332 19.1763 5.69786C19.1987 5.69922 19.221 5.70058 19.243 5.70057C20.5348 5.70018 21.8267 5.70071 23.1186 5.70123C26.2397 5.70251 29.3608 5.70378 32.4819 5.69214C33.4369 5.68855 34.331 6.328 34.502 7.37245C34.6534 8.29787 34.1396 9.19754 33.2338 9.54424C32.9997 9.63391 32.7554 9.67161 32.502 9.67145C29.343 9.66971 26.184 9.66963 23.025 9.66955C21.791 9.66951 20.5569 9.66948 19.3229 9.66935C19.2697 9.66935 19.2165 9.66627 19.1587 9.66292C19.1307 9.6613 19.1016 9.65961 19.0709 9.65819C19.0788 9.55091 19.1129 9.47616 19.1449 9.4062C19.1548 9.38459 19.1644 9.36344 19.173 9.34193C19.2882 9.05456 19.3911 8.76476 19.4345 8.45506C19.473 8.18065 19.481 8.18056 19.7469 8.17771L19.7501 8.17768C19.7909 8.1772 19.8317 8.17734 19.8724 8.17747C19.8916 8.17754 19.9107 8.1776 19.9299 8.1776L21.4923 8.17761C25.1349 8.17762 28.7774 8.17764 32.42 8.17682C32.4421 8.17681 32.4643 8.17737 32.4865 8.17794Z" fill="#424750"/>
</svg>
